<svg width="32" height="32" viewBox="0 0 100 100" xmlns="http://www.w3.org/2000/svg">
  <!-- Simplified version for small favicon size -->
  
  <!-- Central hub hexagon -->
  <path d="M50 25 L62 35 L62 55 L50 65 L38 55 L38 35 Z" 
        fill="#1976d2" stroke="#ffffff" stroke-width="3"/>
  
  <!-- Outer hexagons - simplified for small size -->
  <path d="M25 15 L32 20 L32 30 L25 35 L18 30 L18 20 Z" 
        fill="#42a5f5"/>
  <path d="M75 15 L82 20 L82 30 L75 35 L68 30 L68 20 Z" 
        fill="#42a5f5"/>
  <path d="M25 65 L32 70 L32 80 L25 85 L18 80 L18 70 Z" 
        fill="#42a5f5"/>
  <path d="M75 65 L82 70 L82 80 L75 85 L68 80 L68 70 Z" 
        fill="#42a5f5"/>
  
  <!-- Center dot - larger for visibility -->
  <circle cx="50" cy="45" r="4" fill="#ffffff"/>
</svg>